<?xml version="1.0" standalone="no"?><!DOCTYPE svg PUBLIC "-//W3C//DTD SVG 1.1//EN" "http://www.w3.org/Graphics/SVG/1.1/DTD/svg11.dtd"><svg class="icon" width="200px" height="200.00px" viewBox="0 0 1024 1024" version="1.1" xmlns="http://www.w3.org/2000/svg"><path fill="#000000" d="M640 481.706667l-85.333333-85.333334V149.333333a21.333333 21.333333 0 0 1 21.333333-21.333333h42.666667a21.333333 21.333333 0 0 1 21.333333 21.333333v7.253334a113.92 113.92 0 0 0 61.013333 103.253333A197.12 197.12 0 0 1 810.666667 436.906667v53.76a21.333333 21.333333 0 0 1-21.333334 21.333333h-42.666666a21.333333 21.333333 0 0 1-21.333334-21.333333v-11.52a115.626667 115.626667 0 0 0-64-100.693334c-7.68-4.266667-14.506667-9.386667-21.333333-14.08z m249.6 355.413333L186.88 134.4a20.48 20.48 0 0 0-29.866667 0l-22.613333 22.613333a20.48 20.48 0 0 0 0 29.866667L554.666667 607.573333v10.666667a183.04 183.04 0 0 0-85.333334-20.906667 161.28 161.28 0 0 0-170.666666 149.333334 161.28 161.28 0 0 0 170.666666 149.333333 161.28 161.28 0 0 0 170.666667-149.333333v-53.76l197.12 196.693333a20.48 20.48 0 0 0 29.866667 0l22.613333-22.613333a20.48 20.48 0 0 0 0-29.866667z" /></svg>